<?xml version="1.0" ?><!DOCTYPE svg  PUBLIC '-//W3C//DTD SVG 1.1//EN'  'http://www.w3.org/Graphics/SVG/1.1/DTD/svg11.dtd'><svg id="Layer_1" style="enable-background:new 0 0 64 64;" version="1.1" viewBox="0 0 64 64" xml:space="preserve" xmlns="http://www.w3.org/2000/svg" xmlns:xlink="http://www.w3.org/1999/xlink"><style type="text/css">
	.st0{fill:#282828;}
</style><g><path class="st0" d="M39.7,52.3l-3-22.3c-0.1-0.4-0.3-0.7-0.7-0.8c-0.2-0.1-0.4-0.1-0.5,0l-0.4-2.2c0.2-1.6,1.4-13.4-2.2-18.8    c0,0,0,0,0,0c0,0,0,0,0,0c0-0.1-0.1-0.1-0.2-0.2c0,0-0.1-0.1-0.1-0.1c0,0,0,0,0,0c-0.1-0.1-0.2-0.1-0.3-0.1v20.7    c0.5,0.1,0.9,0.6,0.9,1.1c0,0.7-0.5,1.2-1.2,1.2s-1.2-0.5-1.2-1.2c0-0.6,0.4-1,0.9-1.1V7.6c-0.1,0-0.2,0.1-0.3,0.1c0,0,0,0,0,0    c0,0-0.1,0.1-0.1,0.1c-0.1,0.1-0.1,0.1-0.2,0.2c0,0,0,0,0,0c0,0,0,0,0,0c-3.7,5.5-2.4,17.3-2.2,18.8l-0.4,2.2    c-0.2-0.1-0.4-0.1-0.6,0c-0.4,0.1-0.6,0.4-0.7,0.8l-3,22.3c0,0.3,0.1,0.7,0.4,0.9l3.7,3c0.2,0.2,0.4,0.2,0.6,0.2    c0.1,0,0.3,0,0.4-0.1c0.3-0.1,0.6-0.5,0.6-0.8l1.6-21.1h0.9L34,55.5c0,0.4,0.3,0.7,0.6,0.8c0.1,0.1,0.3,0.1,0.4,0.1    c0.2,0,0.5-0.1,0.6-0.2l3.7-3C39.6,52.9,39.8,52.6,39.7,52.3z M29,41.8l-1.2-0.9l1.1-8.5l0.7,0.7L29,41.8z M35,41.5L34.4,33    l0.7-0.7l1.1,8.3L35,41.5z"/></g></svg>